<?xml version="1.0" encoding="UTF-8"?>
<svg id="Calque_1" xmlns="http://www.w3.org/2000/svg" viewBox="0 0 125.35 161.35">
  <defs>
    <style>
      .cls-1 {
        fill: none;
        stroke: #000;
        stroke-width: .25px;
      }
    </style>
  </defs>
  <rect class="cls-1" y="0" width="125.35" height="161.35"/>
  <path d="M65.92,125.39c24.98-16.64,46.32-.21,47.22.51l5.28,4.22V51.92l-9.07-5.66v-14.39l-2.92-.3c-24.65-2.53-38.48,9.87-43.86,16.21-4.64-5.38-15.04-14.62-32.51-16.06-3.43-.3-7.11-.28-11.07.14,0,0-.02,0-.03,0h0s0,0-.01,0h-.04s-2.87.3-2.87.3h0v14.06l-9.12,5.7v78.15s5.27-4.17,5.27-4.17c.91-.72,22.25-17.16,47.23-.51h6.5ZM22.55,49.83v-11.72c2.84-.15,5.49-.06,7.98.2,17.42,1.91,26.68,12.99,28.9,16v60.97c-11.1-10.11-24.31-12-32.63-12-1.62,0-3.05.07-4.25.17v-53.61ZM65.97,54.24c2.64-3.56,14.35-17.34,36.83-16.15v11.73l.05.03v53.28c-7.34-.6-23.62-.25-36.88,11.83v-60.73ZM13.42,117.51v-61.99l2.62-1.64v57.18s3.88-.75,3.88-.75c.62-.12,9.74-1.79,20.18,1.38-1.21-.1-2.4-.15-3.57-.15-9.93,0-18.12,3.31-23.12,5.97ZM111.92,117.51c-5.78-3.09-15.86-7.03-27.95-5.7,10.98-3.73,20.85-1.92,21.49-1.8l3.88.77v-56.86l2.57,1.61v61.99Z"/>
</svg>