<?xml version="1.0" standalone="no"?>
<!DOCTYPE svg PUBLIC "-//W3C//DTD SVG 20010904//EN"
 "http://www.w3.org/TR/2001/REC-SVG-20010904/DTD/svg10.dtd">
<svg version="1.0" xmlns="http://www.w3.org/2000/svg"
 width="1280.000000pt" height="1280.000000pt" viewBox="0 0 1280.000000 1280.000000"
 preserveAspectRatio="xMidYMid meet">
<metadata>
Created by potrace 1.16, written by Peter Selinger 2001-2019
</metadata>
<g transform="translate(0.000000,1280.000000) scale(0.100000,-0.100000)"
fill="#000000" stroke="none">
<path d="M3362 12786 c-82 -21 -211 -89 -274 -146 -79 -70 -152 -183 -183
-283 -54 -169 -41 -334 37 -497 l41 -85 2686 -2688 2686 -2687 -2681 -2683
c-2926 -2927 -2722 -2714 -2776 -2887 -18 -61 -23 -97 -22 -190 0 -102 4 -125
30 -201 59 -168 170 -296 319 -370 120 -59 187 -72 330 -67 133 6 204 26 312
89 82 47 5881 5840 5952 5944 26 39 60 108 76 155 25 76 29 99 29 210 0 114
-3 133 -30 211 -17 48 -51 117 -77 155 -34 51 -816 838 -2969 2989 -3144 3142
-2962 2966 -3118 3017 -82 27 -286 35 -368 14z"/>
</g>
</svg>
