<?xml version="1.0" encoding="UTF-8"?>
<svg id="Calque_1" data-name="Calque 1" xmlns="http://www.w3.org/2000/svg" viewBox="0 0 125.35 161.35">
  <defs>
    <style>
      .cls-1 {
        fill: #fff;
      }

      .cls-1, .cls-2 {
        stroke-width: 0px;
      }

      .cls-3 {
        fill: none;
        stroke: #000;
        stroke-width: .25px;
      }

      .cls-2 {
        fill: #212121;
      }
    </style>
  </defs>
  <rect class="cls-3" y="0" width="125.35" height="161.35"/>
  <rect class="cls-2" x="41.43" y="75.67" width="46.15" height="7.62"/>
  <rect class="cls-2" x="41.43" y="93.79" width="46.15" height="7.62"/>
  <rect class="cls-2" x="41.43" y="111.76" width="46.15" height="7.62"/>
  <path class="cls-2" d="M105.81,137.93H22.86V28.79h82.95v109.14ZM30.72,130.06h67.22V36.65H30.72v93.41Z"/>
  <g>
    <path class="cls-1" d="M91.94,117.97l.59,33.33c.02.91-1.03,1.32-1.55.61l-8.46-11.61c-.36-.49-1.04-.48-1.38.02l-7.28,10.77c-.74,1.1-2.34.54-2.36-.83l-.56-31.93c0-.52.37-.96.85-.97l19.27-.34c.48,0,.88.41.89.93Z"/>
    <path class="cls-2" d="M91.73,155.33c-1.24.02-2.45-.56-3.22-1.62l-6.6-9.06-5.51,8.16c-1.07,1.58-2.99,2.28-4.79,1.75-1.85-.55-3.12-2.25-3.16-4.23l-.56-31.93c-.04-2.21,1.69-4.04,3.86-4.08l19.27-.34c2.17-.04,3.96,1.73,4,3.94l.59,33.33c.03,1.77-1.05,3.33-2.7,3.88-.38.13-.77.19-1.16.2ZM81.77,136.88c1.26-.02,2.47.58,3.22,1.62l4.36,5.98-.43-24.35-14.89.26.43,24.35,4.15-6.13c.72-1.06,1.9-1.71,3.16-1.73Z"/>
    <circle class="cls-1" cx="81.42" cy="117.2" r="10.51"/>
    <path class="cls-2" d="M81.66,130.77c-7.48.13-13.67-5.84-13.8-13.32s5.84-13.67,13.32-13.8c7.48-.13,13.67,5.84,13.8,13.32.13,7.48-5.84,13.67-13.32,13.8ZM81.29,109.76c-4.11.07-7.39,3.47-7.31,7.58s3.47,7.39,7.58,7.31,7.39-3.47,7.31-7.58-3.47-7.39-7.58-7.31Z"/>
  </g>
</svg>