<?xml version="1.0" encoding="UTF-8"?>
<svg id="Calque_1" data-name="Calque 1" xmlns="http://www.w3.org/2000/svg" viewBox="0 0 125.35 161.35">
  <defs>
    <style>
      .cls-1 {
        fill: none;
        stroke: #000;
        stroke-width: .25px;
      }

      .cls-2 {
        fill: #212121;
        stroke-width: 0px;
      }
    </style>
  </defs>
  <rect class="cls-1" y="0" width="125.35" height="161.35"/>
  <path class="cls-2" d="M18.39,76.54c-3.52-4.01-5.48-8.92-5.48-14.41,0-12.12,9.91-21.86,22.1-21.86s22.02,9.74,22.02,21.86c0,5.4-1.88,10.48-5.48,14.41,1.31.98,2.62,1.96,3.68,3.19l7.29-17.19v-21.37h30.78v21.37l25.21,58.53H6.84v-21.86c0-8.92,4.34-17.44,11.54-22.68ZM41.06,112.48l10.31-23.9c-1.8-2.7-4.09-4.91-6.96-6.47-2.95,1.39-6.06,2.13-9.41,2.13s-6.55-.74-9.5-2.13c-6.14,3.27-10.07,10.07-10.07,17.11v13.26h25.62ZM35,75.64c7.45,0,13.43-6.06,13.43-13.51s-6.06-13.34-13.43-13.34-13.51,5.98-13.51,13.34,5.98,13.51,13.51,13.51ZM105.41,112.48l-20.63-48.14v-14.41h-13.67v14.41l-20.63,48.14h54.93ZM67.59,95.53c2.7,0,4.83,2.21,4.83,4.91s-2.13,4.91-4.83,4.91-4.91-2.21-4.91-4.91,2.21-4.91,4.91-4.91ZM77.98,77.77c2.7,0,4.83,2.21,4.83,4.91s-2.13,4.83-4.83,4.83-4.91-2.13-4.91-4.83,2.21-4.91,4.91-4.91ZM88.3,95.53c2.7,0,4.91,2.21,4.91,4.91s-2.21,4.91-4.91,4.91-4.83-2.21-4.83-4.91,2.13-4.91,4.83-4.91Z"/>
</svg>