<?xml version="1.0" standalone="no"?>
<!DOCTYPE svg PUBLIC "-//W3C//DTD SVG 20010904//EN"
 "http://www.w3.org/TR/2001/REC-SVG-20010904/DTD/svg10.dtd">
<svg version="1.0" xmlns="http://www.w3.org/2000/svg"
 width="1280.000000pt" height="1280.000000pt" viewBox="0 0 1280.000000 1280.000000"
 preserveAspectRatio="xMidYMid meet">
<metadata>
Created by potrace 1.16, written by Peter Selinger 2001-2019
</metadata>
<g transform="translate(0.000000,1280.000000) scale(0.100000,-0.100000)"
fill="#000000" stroke="none">
<path d="M9097 12779 c-75 -21 -129 -46 -197 -92 -25 -16 -1356 -1340 -2958
-2941 -2144 -2142 -2925 -2929 -2959 -2980 -26 -38 -60 -107 -77 -155 -27 -78
-30 -97 -30 -211 0 -111 4 -134 29 -210 16 -47 50 -116 76 -155 71 -104 5870
-5897 5952 -5944 108 -63 179 -83 312 -89 143 -5 210 8 330 67 149 74 260 202
319 370 26 76 30 99 30 201 1 93 -4 129 -22 190 -54 173 150 -40 -2776 2887
l-2681 2683 2686 2687 2686 2688 41 85 c78 163 91 328 37 497 -31 100 -104
212 -183 283 -65 58 -209 133 -290 149 -85 17 -247 12 -325 -10z"/>
</g>
</svg>
