<?xml version="1.0" encoding="utf-8"?>
<svg viewBox="57.151 20.798 125.348 161.348" width="125.348" height="161.348" xmlns="http://www.w3.org/2000/svg">
  <rect x="57.151" y="20.798" width="125.348" height="161.348" style="stroke: rgb(0, 0, 0); fill: none;"/>
  <path d="M 93.569 50.066 C 86.111 50.066 80.047 56.131 80.047 63.588 L 80.047 144.718 C 80.047 152.175 86.111 158.239 93.569 158.239 L 147.656 158.239 C 155.113 158.239 161.177 152.175 161.177 144.718 L 161.177 83.87 L 134.133 83.87 C 130.394 83.87 127.373 80.85 127.373 77.109 L 127.373 50.066 L 93.569 50.066 Z M 134.133 50.066 L 134.133 77.109 L 161.177 77.109 L 134.133 50.066 Z M 103.71 104.153 L 137.514 104.153 C 139.373 104.153 140.895 105.674 140.895 107.532 C 140.895 109.392 139.373 110.913 137.514 110.913 L 103.71 110.913 C 101.851 110.913 100.33 109.392 100.33 107.532 C 100.33 105.674 101.851 104.153 103.71 104.153 Z M 103.71 117.674 L 137.514 117.674 C 139.373 117.674 140.895 119.195 140.895 121.055 C 140.895 122.914 139.373 124.435 137.514 124.435 L 103.71 124.435 C 101.851 124.435 100.33 122.914 100.33 121.055 C 100.33 119.195 101.851 117.674 103.71 117.674 Z M 103.71 131.195 L 137.514 131.195 C 139.373 131.195 140.895 132.717 140.895 134.576 C 140.895 136.435 139.373 137.957 137.514 137.957 L 103.71 137.957 C 101.851 137.957 100.33 136.435 100.33 134.576 C 100.33 132.717 101.851 131.195 103.71 131.195 Z" style="fill: rgb(67, 81, 95);"/>
</svg>
