<?xml version="1.0" encoding="UTF-8"?>
<svg id="Calque_1" data-name="Calque 1" xmlns="http://www.w3.org/2000/svg" viewBox="0 0 125.35 161.35">
  <defs>
    <style>
      .cls-1 {
        fill: none;
        stroke: #000;
        stroke-width: .25px;
      }

      .cls-2 {
        fill: #212121;
        stroke-width: 0px;
      }
    </style>
  </defs>
  <rect class="cls-1" y="0" width="125.35" height="161.35"/>
  <path class="cls-2" d="M8.53,112.99c0-8.89,3.14-19.3,8.89-29.81-5.75-10.51-8.89-20.92-8.89-29.81,0-15.07,9.21-24.39,24.39-24.39,8.89,0,19.3,3.14,29.81,9,10.62-5.85,21.03-8.89,29.81-8.89,15.18,0,24.39,9.11,24.39,24.39,0,8.78-3.14,19.19-8.89,29.81,5.75,10.51,8.89,20.92,8.89,29.7,0,15.18-9.32,24.39-24.39,24.39-8.89,0-19.3-3.04-29.92-8.89-10.51,5.75-20.92,8.89-29.7,8.89-15.5,0-24.39-9.54-24.39-24.39h0ZM24.58,72.02c7.59-10.51,17.02-19.84,26.99-26.88-5.96-2.71-12.79-4.77-18.65-4.77-7.48,0-12.14,2.82-12.9,10.73-.65,6.29,1.52,14.2,4.55,20.92h0ZM32.92,126c6.18,0,12.47-1.95,18.54-4.66-10.41-7.48-19.84-17.02-26.88-26.99-2.6,5.75-4.66,12.9-4.66,18.65,0,8.89,4.01,13.01,13.01,13.01ZM62.73,115.27c12.57-8.02,23.85-19.73,31.98-31.98-7.7-12.03-19.95-24.28-31.98-32.09-12.47,7.91-23.85,19.3-32.09,31.98,7.8,12.03,19.84,24.28,32.09,32.09h0ZM62.73,76.79c3.58,0,6.4,2.93,6.4,6.4s-2.82,6.5-6.4,6.5-6.5-2.93-6.5-6.5,2.93-6.4,6.5-6.4ZM92.54,126.11c9.21,0,12.9-4.66,12.9-13.01,0-5.96-2.17-13.33-4.66-18.65-7.26,10.19-17.24,19.95-26.99,26.88,5.96,2.82,13.01,4.77,18.75,4.77ZM100.78,72.13c2.82-6.18,4.77-12.57,4.77-18.65,0-8.89-4.34-13.12-13.01-13.12-5.85,0-12.57,2.06-18.65,4.77,9.76,6.94,20.16,17.34,26.88,26.99Z"/>
</svg>