<?xml version="1.0" encoding="UTF-8"?>
<svg id="Calque_1" data-name="Calque 1" xmlns="http://www.w3.org/2000/svg" viewBox="0 0 125.35 161.35">
  <defs>
    <style>
      .cls-1, .cls-2, .cls-3 {
        stroke-width: 0px;
      }

      .cls-2 {
        fill: #fff;
      }

      .cls-4 {
        fill: none;
        stroke: #000;
        stroke-width: .25px;
      }

      .cls-3 {
        fill: #212121;
      }
    </style>
  </defs>
  <rect class="cls-4" y="0" width="125.35" height="161.35"/>
  <rect class="cls-3" x="53.89" y="45.09" width="37.48" height="7.62"/>
  <rect class="cls-3" x="62.49" y="60.14" width="28.27" height="7.62"/>
  <circle class="cls-2" cx="25.95" cy="58.46" r="9.8"/>
  <path class="cls-3" d="M4.31,55.48l5.03-.12c.52-3.3,2.12-6.41,4.6-8.78l-2.94-4.78,6.56-4.03,2.94,4.78c3.26-1.26,6.68-1.24,9.89-.34l2.73-5.08,6.7,3.64-2.65,5.03c2.59,2.13,4.66,5.33,5.22,8.49l5.64-.17.3,7.58h0s-5.64.17-5.64.17c-.6,3.35-2.25,6.38-4.67,8.83l2.94,4.78-6.43,4.06-3.07-4.81c-3.23,1.14-6.68,1.24-9.94.26l-2.65,5.03-6.7-3.64,2.62-4.91c-2.92-2.67-4.31-5.11-5.22-8.49l-5.03.12-.22-7.63ZM30.9,66.57c4.71-2.89,5.7-8.71,3.14-12.88s-8.56-5.8-13.04-3.04-6.02,8.38-2.68,13.45c2.5,3.89,8.41,5.04,12.58,2.47h0ZM24.31,55.84c1.54-.95,3.54-.47,4.49,1.07s.4,3.58-1.02,4.56c-1.19.84-3.33.98-4.61-1.1-.95-1.54-.47-3.54,1.15-4.53Z"/>
  <g>
    <circle class="cls-2" cx="60.45" cy="88.88" r="9.8"/>
    <path class="cls-3" d="M39.3,83.45l5.01.46c.9-3.22,2.84-6.12,5.57-8.2l-2.38-5.09,6.98-3.26,2.38,5.09c3.39-.88,6.78-.47,9.87.79l3.29-4.73,6.24,4.38-3.21,4.7c2.33,2.41,4.02,5.82,4.21,9.03l5.62.48-.57,7.56h0s-5.62-.48-5.62-.48c-.98,3.26-2.96,6.08-5.65,8.24l2.38,5.09-6.86,3.3-2.5-5.13c-3.34.76-6.78.47-9.91-.87l-3.21,4.7-6.24-4.38,3.16-4.58c-2.59-2.99-3.7-5.57-4.21-9.03l-5.01-.46.65-7.6ZM64.45,97.5c5.01-2.34,6.66-8.01,4.59-12.44s-7.84-6.74-12.6-4.51-6.93,7.63-4.2,13.06c2.04,4.15,7.78,5.96,12.21,3.89h0ZM59.12,86.09c1.64-.77,3.57-.07,4.33,1.58s-.02,3.61-1.54,4.42c-1.27.7-3.42.6-4.45-1.62-.77-1.64-.07-3.57,1.66-4.37Z"/>
  </g>
  <circle class="cls-2" cx="97.64" cy="117.05" r="9.8"/>
  <path class="cls-3" d="M76.49,111.63l5.01.46c.9-3.22,2.84-6.12,5.57-8.2l-2.38-5.09,6.98-3.26,2.38,5.09c3.39-.88,6.78-.47,9.87.79l3.29-4.73,6.24,4.38-3.21,4.7c2.33,2.41,4.02,5.82,4.21,9.03l5.62.48-.57,7.56h0s-5.62-.48-5.62-.48c-.98,3.26-2.96,6.08-5.65,8.24l2.38,5.09-6.86,3.3-2.5-5.13c-3.34.76-6.78.47-9.91-.87l-3.21,4.7-6.24-4.38,3.16-4.58c-2.59-2.99-3.7-5.57-4.21-9.03l-5.01-.46.65-7.6ZM101.64,125.68c5.01-2.34,6.66-8.01,4.59-12.44s-7.84-6.74-12.6-4.51-6.93,7.63-4.2,13.06c2.04,4.15,7.78,5.96,12.21,3.89h0ZM96.32,114.27c1.64-.77,3.57-.07,4.33,1.58s-.02,3.61-1.54,4.42c-1.27.7-3.42.6-4.45-1.62-.77-1.64-.07-3.57,1.66-4.37Z"/>
  <path class="cls-3" d="M29.4,49.94v-14.08h67.22v72.06c2.91-.29,5.8.75,7.87,2.81V27.99H21.53v22.3c2.53-1.25,5.38-1.31,7.87-.35Z"/>
  <path class="cls-1" d="M25.57,91.4c-.66,0-1.23-.13-1.73-.38-.49-.25-.9-.6-1.23-1.06s-.58-.99-.74-1.62c-.16-.63-.25-1.33-.25-2.1s.08-1.45.25-2.08c.16-.63.41-1.17.74-1.62s.74-.8,1.23-1.05c.49-.25,1.07-.38,1.73-.38s1.25.13,1.74.38.9.6,1.23,1.05.58.99.74,1.62c.16.63.25,1.32.25,2.08s-.08,1.47-.25,2.1c-.16.63-.41,1.17-.74,1.62s-.74.8-1.23,1.06c-.49.25-1.07.38-1.74.38ZM25.57,90.14c.72,0,1.28-.33,1.67-1,.39-.67.59-1.63.59-2.89s-.2-2.22-.59-2.89c-.39-.67-.95-1-1.67-1s-1.26.33-1.66,1c-.39.67-.59,1.63-.59,2.89s.2,2.22.59,2.89c.39.67.94,1,1.66,1Z"/>
  <path class="cls-1" d="M32.26,91.22v-7.56h-2.22v-1.12c.36,0,.67-.03.95-.06.27-.03.52-.09.73-.17s.39-.2.55-.36c.15-.16.3-.38.42-.65h1.21v9.93h-1.63Z"/>
  <path class="cls-1" d="M25.82,107.3c-.66,0-1.23-.13-1.73-.38-.49-.25-.9-.6-1.23-1.06s-.58-.99-.74-1.62c-.16-.63-.25-1.33-.25-2.1s.08-1.45.25-2.08c.16-.63.41-1.17.74-1.62s.74-.8,1.23-1.05c.49-.25,1.07-.38,1.73-.38s1.25.13,1.74.38.9.6,1.23,1.05.58.99.74,1.62c.16.63.25,1.32.25,2.08s-.08,1.47-.25,2.1c-.16.63-.41,1.17-.74,1.62s-.74.8-1.23,1.06c-.49.25-1.07.38-1.74.38ZM25.82,106.04c.72,0,1.28-.33,1.67-1,.39-.67.59-1.63.59-2.89s-.2-2.22-.59-2.89c-.39-.67-.95-1-1.67-1s-1.26.33-1.66,1c-.39.67-.59,1.63-.59,2.89s.2,2.22.59,2.89c.39.67.94,1,1.66,1Z"/>
  <path class="cls-1" d="M32.51,107.12v-7.56h-2.22v-1.12c.36,0,.67-.03.95-.06.27-.03.52-.09.73-.17s.39-.2.55-.36c.15-.16.3-.38.42-.65h1.21v9.93h-1.63Z"/>
  <path class="cls-1" d="M37.68,107.12v-7.56h-2.22v-1.12c.36,0,.67-.03.95-.06.27-.03.52-.09.73-.17s.39-.2.55-.36c.15-.16.3-.38.42-.65h1.21v9.93h-1.63Z"/>
  <path class="cls-1" d="M25.4,122.24c-.66,0-1.23-.13-1.73-.38-.49-.25-.9-.6-1.23-1.06s-.58-.99-.74-1.62c-.16-.63-.25-1.33-.25-2.1s.08-1.45.25-2.08c.16-.63.41-1.17.74-1.62s.74-.8,1.23-1.05c.49-.25,1.07-.38,1.73-.38s1.25.13,1.74.38.9.6,1.23,1.05.58.99.74,1.62c.16.63.25,1.32.25,2.08s-.08,1.47-.25,2.1c-.16.63-.41,1.17-.74,1.62s-.74.8-1.23,1.06c-.49.25-1.07.38-1.74.38ZM25.4,120.98c.72,0,1.28-.33,1.67-1,.39-.67.59-1.63.59-2.89s-.2-2.22-.59-2.89c-.39-.67-.95-1-1.67-1s-1.26.33-1.66,1c-.39.67-.59,1.63-.59,2.89s.2,2.22.59,2.89c.39.67.94,1,1.66,1Z"/>
  <path class="cls-1" d="M34.36,122.24c-.66,0-1.23-.13-1.73-.38-.49-.25-.9-.6-1.23-1.06s-.58-.99-.74-1.62c-.16-.63-.25-1.33-.25-2.1s.08-1.45.25-2.08c.16-.63.41-1.17.74-1.62s.74-.8,1.23-1.05c.49-.25,1.07-.38,1.73-.38s1.25.13,1.74.38.9.6,1.23,1.05.58.99.74,1.62c.16.63.25,1.32.25,2.08s-.08,1.47-.25,2.1c-.16.63-.41,1.17-.74,1.62s-.74.8-1.23,1.06c-.49.25-1.07.38-1.74.38ZM34.36,120.98c.72,0,1.28-.33,1.67-1,.39-.67.59-1.63.59-2.89s-.2-2.22-.59-2.89c-.39-.67-.95-1-1.67-1s-1.26.33-1.66,1c-.39.67-.59,1.63-.59,2.89s.2,2.22.59,2.89c.39.67.94,1,1.66,1Z"/>
  <path class="cls-1" d="M43.32,122.24c-.66,0-1.23-.13-1.73-.38-.49-.25-.9-.6-1.23-1.06s-.58-.99-.74-1.62c-.16-.63-.25-1.33-.25-2.1s.08-1.45.25-2.08c.16-.63.41-1.17.74-1.62s.74-.8,1.23-1.05c.49-.25,1.07-.38,1.73-.38s1.25.13,1.74.38.9.6,1.23,1.05.58.99.74,1.62c.16.63.25,1.32.25,2.08s-.08,1.47-.25,2.1c-.16.63-.41,1.17-.74,1.62s-.74.8-1.23,1.06c-.49.25-1.07.38-1.74.38ZM43.32,120.98c.72,0,1.28-.33,1.67-1,.39-.67.59-1.63.59-2.89s-.2-2.22-.59-2.89c-.39-.67-.95-1-1.67-1s-1.26.33-1.66,1c-.39.67-.59,1.63-.59,2.89s.2,2.22.59,2.89c.39.67.94,1,1.66,1Z"/>
  <path class="cls-1" d="M25.53,137.19c-.66,0-1.23-.13-1.73-.38-.49-.25-.9-.6-1.23-1.06s-.58-.99-.74-1.62c-.16-.63-.25-1.33-.25-2.1s.08-1.45.25-2.08c.16-.63.41-1.17.74-1.62s.74-.8,1.23-1.05c.49-.25,1.07-.38,1.73-.38s1.25.13,1.74.38.9.6,1.23,1.05.58.99.74,1.62c.16.63.25,1.32.25,2.08s-.08,1.47-.25,2.1c-.16.63-.41,1.17-.74,1.62s-.74.8-1.23,1.06c-.49.25-1.07.38-1.74.38ZM25.53,135.93c.72,0,1.28-.33,1.67-1,.39-.67.59-1.63.59-2.89s-.2-2.22-.59-2.89c-.39-.67-.95-1-1.67-1s-1.26.33-1.66,1c-.39.67-.59,1.63-.59,2.89s.2,2.22.59,2.89c.39.67.94,1,1.66,1Z"/>
  <path class="cls-1" d="M32.22,137.19v-7.56h-2.22v-1.12c.36,0,.67-.03.95-.06.27-.03.52-.09.73-.17s.39-.2.55-.36c.15-.16.3-.38.42-.65h1.21v9.93h-1.63Z"/>
  <path class="cls-1" d="M37.4,137.19v-7.56h-2.22v-1.12c.36,0,.67-.03.95-.06.27-.03.52-.09.73-.17s.39-.2.55-.36c.15-.16.3-.38.42-.65h1.21v9.93h-1.63Z"/>
  <path class="cls-1" d="M44.52,137.19c-.66,0-1.23-.13-1.73-.38-.49-.25-.9-.6-1.23-1.06s-.58-.99-.74-1.62c-.16-.63-.25-1.33-.25-2.1s.08-1.45.25-2.08c.16-.63.41-1.17.74-1.62s.74-.8,1.23-1.05c.49-.25,1.07-.38,1.73-.38s1.25.13,1.74.38.9.6,1.23,1.05.58.99.74,1.62c.16.63.25,1.32.25,2.08s-.08,1.47-.25,2.1c-.16.63-.41,1.17-.74,1.62s-.74.8-1.23,1.06c-.49.25-1.07.38-1.74.38ZM44.52,135.93c.72,0,1.28-.33,1.67-1,.39-.67.59-1.63.59-2.89s-.2-2.22-.59-2.89c-.39-.67-.95-1-1.67-1s-1.26.33-1.66,1c-.39.67-.59,1.63-.59,2.89s.2,2.22.59,2.89c.39.67.94,1,1.66,1Z"/>
  <path class="cls-1" d="M51.2,137.19v-7.56h-2.22v-1.12c.36,0,.67-.03.95-.06.27-.03.52-.09.73-.17s.39-.2.55-.36c.15-.16.3-.38.42-.65h1.21v9.93h-1.63Z"/>
  <path class="cls-1" d="M59.08,137.19c-.66,0-1.23-.13-1.73-.38-.49-.25-.9-.6-1.23-1.06s-.58-.99-.74-1.62c-.16-.63-.25-1.33-.25-2.1s.08-1.45.25-2.08c.16-.63.41-1.17.74-1.62s.74-.8,1.23-1.05c.49-.25,1.07-.38,1.73-.38s1.25.13,1.74.38.9.6,1.23,1.05.58.99.74,1.62c.16.63.25,1.32.25,2.08s-.08,1.47-.25,2.1c-.16.63-.41,1.17-.74,1.62s-.74.8-1.23,1.06c-.49.25-1.07.38-1.74.38ZM59.08,135.93c.72,0,1.28-.33,1.67-1,.39-.67.59-1.63.59-2.89s-.2-2.22-.59-2.89c-.39-.67-.95-1-1.67-1s-1.26.33-1.66,1c-.39.67-.59,1.63-.59,2.89s.2,2.22.59,2.89c.39.67.94,1,1.66,1Z"/>
  <path class="cls-1" d="M65.77,137.19v-7.56h-2.22v-1.12c.36,0,.67-.03.95-.06.27-.03.52-.09.73-.17s.39-.2.55-.36c.15-.16.3-.38.42-.65h1.21v9.93h-1.63Z"/>
  <path class="cls-1" d="M70.95,137.19v-7.56h-2.22v-1.12c.36,0,.67-.03.95-.06.27-.03.52-.09.73-.17s.39-.2.55-.36c.15-.16.3-.38.42-.65h1.21v9.93h-1.63Z"/>
  <path class="cls-1" d="M50.44,122.24v-7.56h-2.22v-1.12c.36,0,.67-.03.95-.06.27-.03.52-.09.73-.17s.39-.2.55-.36c.15-.16.3-.38.42-.65h1.21v9.93h-1.63Z"/>
  <path class="cls-1" d="M55.61,122.24v-7.56h-2.22v-1.12c.36,0,.67-.03.95-.06.27-.03.52-.09.73-.17s.39-.2.55-.36c.15-.16.3-.38.42-.65h1.21v9.93h-1.63Z"/>
  <path class="cls-1" d="M63.41,122.24c-.66,0-1.23-.13-1.73-.38-.49-.25-.9-.6-1.23-1.06s-.58-.99-.74-1.62c-.16-.63-.25-1.33-.25-2.1s.08-1.45.25-2.08c.16-.63.41-1.17.74-1.62s.74-.8,1.23-1.05c.49-.25,1.07-.38,1.73-.38s1.25.13,1.74.38.9.6,1.23,1.05.58.99.74,1.62c.16.63.25,1.32.25,2.08s-.08,1.47-.25,2.1c-.16.63-.41,1.17-.74,1.62s-.74.8-1.23,1.06c-.49.25-1.07.38-1.74.38ZM63.41,120.98c.72,0,1.28-.33,1.67-1,.39-.67.59-1.63.59-2.89s-.2-2.22-.59-2.89c-.39-.67-.95-1-1.67-1s-1.26.33-1.66,1c-.39.67-.59,1.63-.59,2.89s.2,2.22.59,2.89c.39.67.94,1,1.66,1Z"/>
</svg>