<?xml version="1.0" encoding="UTF-8"?>
<svg id="Calque_1" data-name="Calque 1" xmlns="http://www.w3.org/2000/svg" viewBox="0 0 125.35 161.35">
  <defs>
    <style>
      .cls-1 {
        fill: none;
        stroke: #000;
        stroke-width: .25px;
      }

      .cls-2 {
        fill: #212121;
        stroke-width: 0px;
      }
    </style>
  </defs>
  <rect class="cls-1" y="0" width="125.35" height="161.35"/>
  <path class="cls-2" d="M61.5,28.98c21.48,0,38.89,17.41,38.89,39,0,13.55-7.16,25.56-17.85,32.5v14.87h-41.97v-14.87c-10.69-6.94-17.96-18.95-17.96-32.5,0-21.59,17.52-39,38.89-39h0ZM52.03,94.2v9.69h19.06v-9.69c11.68-7.6,17.74-13.99,17.74-26.22,0-15.53-12.56-27.43-27.32-27.43s-27.32,12.12-27.32,27.43c0,12.56,6.5,19.06,17.85,26.22ZM40.57,125.93h42.08v11.46h-42.08v-11.46ZM80.67,64.79h-9.14c0-4.41-3.53-8.04-7.82-8.04v-9.14c9.36,0,16.97,7.71,16.97,17.19h0Z"/>
</svg>